<?xml version="1.0" encoding="UTF-8"?>
<svg version="1.1" xmlns="http://www.w3.org/2000/svg" width="512" height="512">
<path d="M0 0 C168.96 0 337.92 0 512 0 C512 168.96 512 337.92 512 512 C343.04 512 174.08 512 0 512 C0 343.04 0 174.08 0 0 Z " fill="#995C89" transform="translate(0,0)"/>
<path d="M0 0 C4.34425704 3.67643939 8.23286283 7.7424406 12 12 C12.98226562 13.09634766 12.98226562 13.09634766 13.984375 14.21484375 C22.10984181 24.69347793 22.09487207 41.32187914 21 54 C18.45209771 67.14899574 10.08193343 77.52576684 0 86 C-5.0256092 89.22704803 -9.97628115 91.52444325 -16 92 C-16 94.64 -16 97.28 -16 100 C-14.91803345 100.40968018 -14.91803345 100.40968018 -13.81420898 100.82763672 C-11.06342334 101.97357865 -8.56050361 103.28360712 -5.97265625 104.7578125 C-5.02318115 105.29664063 -4.07370605 105.83546875 -3.09545898 106.390625 C-2.09458252 106.96296875 -1.09370605 107.5353125 -0.0625 108.125 C0.97511475 108.71539062 2.01272949 109.30578125 3.08178711 109.9140625 C5.14091082 111.08620626 7.19928192 112.25967332 9.25683594 113.43457031 C11.45252307 114.68757369 13.65055808 115.93606519 15.8515625 117.1796875 C23.88639479 121.73471408 31.82631138 126.44336668 39.77026367 131.15454102 C45.10518326 134.31132786 50.45979472 137.42065069 55.875 140.4375 C62.75798902 144.28336898 69.60768673 148.18544094 76.4375 152.125 C77.44474121 152.69919678 78.45198242 153.27339355 79.48974609 153.86499023 C99.50357277 165.45866906 99.50357277 165.45866906 102.54362488 175.85997009 C103.00210584 178.00987467 103.14630403 179.93947209 103.17700195 182.13500977 C103.18983719 182.94007462 103.20267242 183.74513947 103.21589661 184.57460022 C103.22697701 185.8699192 103.22697701 185.8699192 103.23828125 187.19140625 C103.246353 188.09189194 103.25442474 188.99237762 103.26274109 189.92015076 C103.27656035 191.82736297 103.28729214 193.73459968 103.29516602 195.6418457 C103.30664807 197.57649064 103.32703954 199.51110485 103.35668945 201.44555664 C103.73636992 226.23508527 103.73636992 226.23508527 95.375 235.31640625 C91.00215173 239.28611994 86.17881565 242.145264 81 244.9375 C80.08009277 245.44837158 79.16018555 245.95924316 78.21240234 246.4855957 C76.35267782 247.5174314 74.48992193 248.54382438 72.62402344 249.56445312 C68.94246678 251.57855372 65.28282552 253.63071521 61.625 255.6875 C60.65892822 256.22793945 60.65892822 256.22793945 59.67333984 256.77929688 C55.27266451 259.25055705 50.93947737 261.81913728 46.625 264.4375 C41.19311624 267.73399242 35.69098648 270.87308048 30.125 273.9375 C24.26048341 277.16650271 18.44746917 280.46289619 12.6875 283.875 C9.79237756 285.58454001 6.89643517 287.29268511 4 289 C3.12811035 289.51449707 2.2562207 290.02899414 1.35791016 290.55908203 C-1.4228678 292.19428708 -4.21064072 293.81698468 -7 295.4375 C-8.29031128 296.20006104 -8.29031128 296.20006104 -9.60668945 296.97802734 C-19.28371424 302.571282 -28.37702504 305.93051678 -39.6171875 303.4140625 C-46.79039021 301.09394649 -53.00492243 297.18119097 -59.3671875 293.23046875 C-62.39688733 291.35091813 -65.47646825 289.6127392 -68.625 287.9375 C-72.68010949 285.76554967 -76.59432664 283.4307073 -80.5 281 C-85.27102516 278.0342276 -90.09158584 275.25568454 -95.0390625 272.59765625 C-106.59558925 266.36201055 -117.94031292 259.74673648 -129.26074219 253.0949707 C-133.58927082 250.55435759 -137.91166953 248.01878172 -142.33203125 245.640625 C-152.97048669 239.9081726 -161.04504688 233.7349732 -165 222 C-165.51852138 218.57787412 -165.53967772 215.23372215 -165.49609375 211.77734375 C-165.49754898 210.83242569 -165.49900421 209.88750763 -165.50050354 208.91395569 C-165.498854 206.92982884 -165.48739971 204.94568793 -165.46655273 202.96166992 C-165.43754311 199.94198771 -165.44597556 196.92405942 -165.45898438 193.90429688 C-165.45274714 191.96613739 -165.44435631 190.02798339 -165.43359375 188.08984375 C-165.43652939 187.19692123 -165.43946503 186.30399872 -165.44248962 185.38401794 C-165.3029032 176.01610086 -162.68228511 169.90119005 -156.26171875 163.07568359 C-152.68344044 159.79173258 -148.77991879 157.56388148 -144.5 155.3125 C-142.63456782 154.28930646 -140.77001885 153.26450145 -138.90625 152.23828125 C-137.45605469 151.4486499 -137.45605469 151.4486499 -135.9765625 150.64306641 C-130.92911221 147.85686722 -125.96940145 144.92239819 -121 142 C-108.21764251 134.5210155 -95.36004886 127.17715829 -82.48046875 119.8671875 C-73.78982204 114.92736238 -65.140273 109.96629516 -56.69140625 104.62109375 C-49.01927711 100 -49.01927711 100 -46 100 C-46 97.36 -46 94.72 -46 92 C-46.78375 91.938125 -47.5675 91.87625 -48.375 91.8125 C-61.65982183 88.83486752 -69.89305055 80.0862218 -77 69 C-84.48151461 55.67010377 -84.62084104 39.65669334 -81.30078125 25.0078125 C-78.43954601 14.85694699 -70.25899331 6.1639447 -62 0 C-61.41605469 -0.47953125 -60.83210938 -0.9590625 -60.23046875 -1.453125 C-56.11212951 -4.68829894 -52.14460774 -6.06872654 -47 -7 C-46.15308594 -7.18433594 -45.30617188 -7.36867188 -44.43359375 -7.55859375 C-29.16284231 -10.708322 -12.92502439 -9.4302753 0 0 Z " fill="#111730" transform="translate(287,101)"/>
<path d="M0 0 C3.46149405 1.30338078 6.56952357 2.81869963 9.73828125 4.72265625 C11.08019531 5.52376831 11.08019531 5.52376831 12.44921875 6.34106445 C13.39410156 6.90913818 14.33898437 7.47721191 15.3125 8.0625 C22.00242207 12.05169613 28.69917761 16.01491398 35.5 19.8125 C36.14686768 20.1739209 36.79373535 20.5353418 37.46020508 20.90771484 C38.7154697 21.60840954 39.9709158 22.30877927 41.2265625 23.00878906 C52.59589182 29.36334262 63.82488164 35.96507475 75.0703125 42.53515625 C76.51905762 43.38037842 76.51905762 43.38037842 77.99707031 44.24267578 C80.10363136 45.47544216 82.20686984 46.7138954 84.30761719 47.95654297 C85.37915039 48.58834473 86.45068359 49.22014648 87.5546875 49.87109375 C88.52647949 50.44657959 89.49827148 51.02206543 90.49951172 51.61499023 C97.43475569 55.45639221 106.32004014 55.33399184 114 54 C119.59807272 52.08224439 124.51247746 48.77800909 129.46582031 45.60058594 C134.22676634 42.59357609 139.12763519 39.82134731 144 37 C146.05357101 35.79719181 148.1069589 34.59407092 150.16015625 33.390625 C155.2157541 30.44145761 160.30994872 27.57182074 165.4375 24.75 C175.68374536 19.10889877 185.7331411 13.14658946 195.7734375 7.1484375 C196.55388428 6.684375 197.33433105 6.2203125 198.13842773 5.7421875 C199.64282211 4.84757047 201.14503568 3.94927341 202.64477539 3.046875 C207.77470546 0 207.77470546 0 210 0 C210 8.25 210 16.5 210 25 C208.040625 26.11375 206.08125 27.2275 204.0625 28.375 C198.66018419 31.45453769 193.29056375 34.58573329 187.9375 37.75 C181.63541674 41.4725858 175.29829287 45.12870934 168.9375 48.75 C156.12093441 56.04982895 143.39407213 63.50190304 130.66455078 70.95214844 C127.36026637 72.8857349 124.05514487 74.81788483 120.75 76.75 C119.73188232 77.3466748 118.71376465 77.94334961 117.66479492 78.55810547 C116.71838135 79.11127441 115.77196777 79.66444336 114.796875 80.234375 C113.96510742 80.72131836 113.13333984 81.20826172 112.27636719 81.70996094 C106.44335681 85.01558372 106.44335681 85.01558372 103.77734375 84.921875 C99.71022191 83.571888 96.23012556 81.44321657 92.5625 79.25 C91.7377417 78.7648291 90.9129834 78.2796582 90.06323242 77.77978516 C87.37107938 76.19385495 84.68522734 74.59762463 82 73 C78.27178579 70.79005714 74.54214527 68.58252661 70.8125 66.375 C69.8851001 65.82529541 68.9577002 65.27559082 68.00219727 64.70922852 C60.66466643 60.36867168 53.25885103 56.16420779 45.81298828 52.01318359 C37.33455634 47.27503485 28.9473269 42.39795166 20.63598633 37.37304688 C15.57324213 34.32040258 10.45482268 31.37369443 5.30273438 28.47460938 C1.10099546 26.10099546 1.10099546 26.10099546 0 25 C-0.08737645 23.14630389 -0.10698153 21.28932459 -0.09765625 19.43359375 C-0.09443359 18.30888672 -0.09121094 17.18417969 -0.08789062 16.02539062 C-0.07951172 14.84138672 -0.07113281 13.65738281 -0.0625 12.4375 C-0.05798828 11.24962891 -0.05347656 10.06175781 -0.04882812 8.83789062 C-0.03699675 5.89187774 -0.02051287 2.94596319 0 0 Z " fill="#AA627A" transform="translate(151,290)"/>
<path d="M0 0 C0 16.83 0 33.66 0 51 C9.9 51 19.8 51 30 51 C30 34.17 30 17.34 30 0 C43.37623762 6.68811881 43.37623762 6.68811881 48.25 9.8125 C55.04244884 14.07299658 62.00407421 17.98235073 69.00683594 21.88427734 C72.20349865 23.673688 75.38358823 25.49179175 78.5625 27.3125 C80.17318359 28.23482422 80.17318359 28.23482422 81.81640625 29.17578125 C82.86699219 29.77777344 83.91757812 30.37976563 85 31 C87.33301125 32.33389787 89.66648508 33.66698328 92 35 C92 35.66 92 36.32 92 37 C88.97405446 39.28791004 86.33916774 40.85874955 82.8203125 42.32421875 C78.4795175 44.15092951 74.48993231 46.4874873 70.4375 48.875 C69.62176514 49.35114746 68.80603027 49.82729492 67.96557617 50.31787109 C60.63095451 54.60674241 53.3261944 58.94660901 46.01928711 63.2824707 C39.76307598 66.98576109 33.46625393 70.60448469 27.09692383 74.10986328 C24.18334957 75.72271339 21.53463417 77.35309632 18.875 79.37109375 C16 81 16 81 13.640625 80.53125 C12.76921875 80.0259375 11.8978125 79.520625 11 79 C9.72409853 78.32265252 8.44804143 77.64559815 7.171875 76.96875 C5.69583714 76.14956915 4.22199684 75.32642018 2.75 74.5 C1.55310547 73.83133911 1.55310547 73.83133911 0.33203125 73.14916992 C-5.49957253 69.87695386 -11.27652591 66.51898657 -17.02905273 63.11010742 C-24.83618578 58.48784979 -32.70127382 53.96672456 -40.56445312 49.44067383 C-42.65965003 48.23432392 -44.75359084 47.02578946 -46.84619141 45.81494141 C-49.04461364 44.549802 -51.25066053 43.29785932 -53.46240234 42.05615234 C-54.56148926 41.43305176 -55.66057617 40.80995117 -56.79296875 40.16796875 C-57.79223389 39.60746826 -58.79149902 39.04696777 -59.82104492 38.46948242 C-60.5401001 37.98455322 -61.25915527 37.49962402 -62 37 C-62 36.34 -62 35.68 -62 35 C-59.40559103 33.34020342 -56.81113053 31.81249806 -54.125 30.3125 C-52.3826883 29.32183298 -50.64050809 28.33093469 -48.8984375 27.33984375 C-47.95194336 26.80472168 -47.00544922 26.26959961 -46.03027344 25.71826172 C-40.58735904 22.6319556 -35.16990562 19.50147605 -29.75 16.375 C-28.64156738 15.73723633 -27.53313477 15.09947266 -26.39111328 14.44238281 C-19.60176932 10.5289892 -12.84524549 6.56957885 -6.18652344 2.43701172 C-2.21129 0 -2.21129 0 0 0 Z " fill="#B86274" transform="translate(241,235)"/>
<path d="M0 0 C2.29954636 1.97622941 4.30115488 3.80713835 6.09765625 6.25 C6.09765625 7.24 6.09765625 8.23 6.09765625 9.25 C6.75765625 9.25 7.41765625 9.25 8.09765625 9.25 C10.64584782 14.34638315 9.83372687 22.30102918 8.484375 27.70703125 C6.10494096 33.02145 1.8856106 37.0237417 -2.90234375 40.25 C-9.42816276 42.52098502 -18.62989106 42.19713993 -24.90234375 39.25 C-27.61868506 37.19469062 -29.7635484 34.89235982 -31.90234375 32.25 C-32.33933594 31.7240625 -32.77632812 31.198125 -33.2265625 30.65625 C-36.88798542 25.41463402 -36.84436148 19.40178535 -35.90234375 13.25 C-34.68216563 10.13984384 -33.05177642 7.79075419 -30.90234375 5.25 C-30.44472656 4.6725 -29.98710937 4.095 -29.515625 3.5 C-22.61394939 -4.36601932 -8.78853276 -5.29914223 0 0 Z " fill="#9F516C" transform="translate(268.90234375,124.75)"/>
<path d="M0 0 C1.30598768 4.34048848 0.77036658 7.86914465 -1 12 C-4.18763115 16.59707217 -7.84278701 20.64241692 -13 23 C-13.66 23 -14.32 23 -15 23 C-15 23.66 -15 24.32 -15 25 C-15.825 25.391875 -16.65 25.78375 -17.5 26.1875 C-20.04768713 27.50683798 -22.40170769 28.84349467 -24.8125 30.375 C-27.73927449 32.22525974 -30.68521094 34.02443187 -33.6875 35.75 C-34.39261719 36.15734375 -35.09773437 36.5646875 -35.82421875 36.984375 C-38.20456413 38.09548774 -40.41433419 38.58339535 -43 39 C-43 39.66 -43 40.32 -43 41 C-46.32001815 43.43605047 -49.95011348 45.41794188 -53.5 47.5 C-54.48226562 48.09425781 -55.46453125 48.68851562 -56.4765625 49.30078125 C-60.79911936 51.8539715 -64.71875494 54.15189839 -69.65625 55.21875 C-70.7596875 55.4765625 -71.863125 55.734375 -73 56 C-73.33 56.99 -73.66 57.98 -74 59 C-76.475 59.495 -76.475 59.495 -79 60 C-79 60.66 -79 61.32 -79 62 C-84.625 65 -84.625 65 -88 65 C-88 65.66 -88 66.32 -88 67 C-89.7664657 68.0076952 -91.53833823 69.00591714 -93.3125 70 C-94.29863281 70.556875 -95.28476562 71.11375 -96.30078125 71.6875 C-99 73 -99 73 -102 73 C-102 73.66 -102 74.32 -102 75 C-102.99 75 -103.98 75 -105 75 C-105 75.66 -105 76.32 -105 77 C-106.134375 77.556875 -107.26875 78.11375 -108.4375 78.6875 C-111.54698684 80.23125583 -114.55862016 81.88564002 -117.5625 83.625 C-125.62182738 88.11007089 -133.13293268 89.2023987 -142 86.8125 C-146.71310066 85.2803775 -151.19102354 83.22379851 -155 80 C-155 79.34 -155 78.68 -155 78 C-155.69996094 77.90589844 -156.39992188 77.81179688 -157.12109375 77.71484375 C-160.55475679 76.86225171 -163.04300957 75.39862503 -166.0625 73.5625 C-169.3306817 71.58840286 -172.55258192 69.64517074 -176 68 C-176 67.34 -176 66.68 -176 66 C-177.65 65.67 -179.3 65.34 -181 65 C-181 64.34 -181 63.68 -181 63 C-181.680625 62.9175 -182.36125 62.835 -183.0625 62.75 C-186.8746907 61.77667472 -189.64070329 60.04192545 -193 58 C-193 57.34 -193 56.68 -193 56 C-193.53367187 55.85304688 -194.06734375 55.70609375 -194.6171875 55.5546875 C-200.0567785 53.91716357 -204.55653452 51.64200901 -209.359375 48.62890625 C-213.79734016 45.89128573 -218.40570412 43.46310159 -223 41 C-223 40.34 -223 39.68 -223 39 C-224.65 38.67 -226.3 38.34 -228 38 C-228 37.34 -228 36.68 -228 36 C-228.59167969 35.81824219 -229.18335938 35.63648438 -229.79296875 35.44921875 C-238.30494164 32.74149491 -238.30494164 32.74149491 -242 30 C-242 29.34 -242 28.68 -242 28 C-242.7425 27.87625 -243.485 27.7525 -244.25 27.625 C-246.80141485 27.04513299 -248.7267573 26.26291261 -251 25 C-251 24.34 -251 23.68 -251 23 C-251.9075 22.7525 -252.815 22.505 -253.75 22.25 C-257.12496123 20.95193799 -258.74102121 19.78028159 -261 17 C-261 16.34 -261 15.68 -261 15 C-261.99 14.67 -262.98 14.34 -264 14 C-264.984375 12.29296875 -264.984375 12.29296875 -265.75 10.1875 C-266.01296875 9.50042969 -266.2759375 8.81335938 -266.546875 8.10546875 C-267.06056958 5.71856031 -266.76282269 4.29362227 -266 2 C-265.8040625 2.556875 -265.608125 3.11375 -265.40625 3.6875 C-260.60055548 15.95030671 -251.21050353 20.90098788 -240.16748047 26.81591797 C-236.59929233 28.76519849 -233.11635431 30.85470277 -229.625 32.9375 C-223.68311626 36.46474276 -217.68120293 39.86067485 -211.625 43.1875 C-205.76846533 46.40632554 -200.08615759 49.78004127 -194.484375 53.4296875 C-191.09268373 55.57349236 -187.58587717 57.46041733 -184.05078125 59.35546875 C-180.51260731 61.26273024 -177.00387526 63.21812787 -173.5 65.1875 C-172.83532715 65.5599585 -172.1706543 65.93241699 -171.48583984 66.31616211 C-167.63005403 68.48623211 -163.80302225 70.69835882 -159.99609375 72.953125 C-159.15433594 73.44917236 -158.31257813 73.94521973 -157.4453125 74.45629883 C-155.81240637 75.42074991 -154.18327472 76.39162969 -152.55859375 77.36987305 C-143.792976 82.53787264 -135.3178405 84.67116641 -125.24609375 82.37109375 C-114.09966862 78.58635552 -104.12623421 71.82906596 -94.07910156 65.82666016 C-89.37622049 63.03670169 -84.6283901 60.3277202 -79.875 57.625 C-79.0080249 57.13088623 -78.1410498 56.63677246 -77.24780273 56.12768555 C-75.59074374 55.18331955 -73.93344698 54.2393706 -72.27587891 53.29589844 C-69.03592162 51.45104827 -65.79909911 49.60073326 -62.5625 47.75 C-59.27699376 45.87201697 -55.99102416 43.99488462 -52.703125 42.12109375 C-49.13290464 40.08508099 -45.5651622 38.04485395 -42 36 C-40.88286621 35.35925537 -40.88286621 35.35925537 -39.74316406 34.70556641 C-34.89282226 31.91993727 -30.05317169 29.1168145 -25.22412109 26.29443359 C-23.20379298 25.11860706 -21.17518578 23.95863404 -19.14453125 22.80078125 C-9.84579 17.35422279 -3.40667427 12.30988722 -0.41015625 1.6875 C-0.27480469 1.130625 -0.13945312 0.57375 0 0 Z " fill="#754C67" transform="translate(389,321)"/>
<path d="M0 0 C3.60136159 1.44054464 6.47488062 2.76183315 9.73828125 4.72265625 C11.08019531 5.52376831 11.08019531 5.52376831 12.44921875 6.34106445 C13.39410156 6.90913818 14.33898437 7.47721191 15.3125 8.0625 C22.00242207 12.05169613 28.69917761 16.01491398 35.5 19.8125 C36.14686768 20.1739209 36.79373535 20.5353418 37.46020508 20.90771484 C38.7154697 21.60840954 39.9709158 22.30877927 41.2265625 23.00878906 C52.59589182 29.36334262 63.82488164 35.96507475 75.0703125 42.53515625 C76.51905762 43.38037842 76.51905762 43.38037842 77.99707031 44.24267578 C80.10363136 45.47544216 82.20686984 46.7138954 84.30761719 47.95654297 C85.37915039 48.58834473 86.45068359 49.22014648 87.5546875 49.87109375 C88.52647949 50.44657959 89.49827148 51.02206543 90.49951172 51.61499023 C97.43475569 55.45639221 106.32004014 55.33399184 114 54 C119.59807272 52.08224439 124.51247746 48.77800909 129.46582031 45.60058594 C134.22676634 42.59357609 139.12763519 39.82134731 144 37 C146.05357101 35.79719181 148.1069589 34.59407092 150.16015625 33.390625 C155.2157541 30.44145761 160.30994872 27.57182074 165.4375 24.75 C175.68374536 19.10889877 185.7331411 13.14658946 195.7734375 7.1484375 C196.55388428 6.684375 197.33433105 6.2203125 198.13842773 5.7421875 C199.64282211 4.84757047 201.14503568 3.94927341 202.64477539 3.046875 C207.77470546 0 207.77470546 0 210 0 C210 8.25 210 16.5 210 25 C209.67 25 209.34 25 209 25 C208.67 18.4 208.34 11.8 208 5 C206.08316406 6.09699219 204.16632813 7.19398438 202.19140625 8.32421875 C200.30484516 9.40337237 198.41817471 10.48233458 196.53149414 11.5612793 C195.2348306 12.3029419 193.93827824 13.04479892 192.6418457 13.78686523 C186.13410493 17.51167402 179.62180699 21.22492483 173.05932617 24.8527832 C169.30702486 26.94312865 165.59108187 29.0961149 161.875 31.25 C161.05386719 31.72526123 160.23273438 32.20052246 159.38671875 32.69018555 C154.2285079 35.68364725 149.10310109 38.72620926 144 41.8125 C138.95262717 44.85902848 133.88184167 47.83461655 128.6640625 50.58203125 C126.79983879 51.57427935 124.96260994 52.61817079 123.1484375 53.69921875 C113.43662 59.19574871 104.11554065 59.29581889 93.39428711 56.77197266 C88.87502463 55.31485958 84.92896288 52.87025466 80.875 50.4375 C79.96790283 49.90463379 79.06080566 49.37176758 78.1262207 48.82275391 C76.28980564 47.74151984 74.45650057 46.65498491 72.62646484 45.56298828 C70.19478267 44.11591361 67.75119111 42.69239883 65.30078125 41.27734375 C63.92922794 40.47734987 62.5581036 39.67661989 61.1875 38.875 C60.55376465 38.50947021 59.9200293 38.14394043 59.26708984 37.76733398 C57.80992143 36.9009151 56.39855848 35.9581522 55 35 C55 34.34 55 33.68 55 33 C53.78957031 32.90525391 53.78957031 32.90525391 52.5546875 32.80859375 C47.83484302 31.7349588 44.23967375 29.54873931 40.125 27.0625 C39.34125 26.60681641 38.5575 26.15113281 37.75 25.68164062 C33.4843308 23.1437904 33.4843308 23.1437904 32 22 C32 21.34 32 20.68 32 20 C30.35 19.67 28.7 19.34 27 19 C27 18.34 27 17.68 27 17 C26.20207031 16.94972656 25.40414062 16.89945312 24.58203125 16.84765625 C19.63355903 15.67664374 15.9342568 13.16536864 11.6875 10.4375 C10.06745067 9.41371002 8.44641165 8.39148384 6.82421875 7.37109375 C6.11354248 6.91661865 5.40286621 6.46214355 4.6706543 5.99389648 C3.18075472 4.91478692 3.18075472 4.91478692 2 5 C1.67 11.6 1.34 18.2 1 25 C0.67 25 0.34 25 0 25 C0 16.75 0 8.5 0 0 Z " fill="#854C5E" transform="translate(151,290)"/>
<path d="M0 0 C13.37623762 6.68811881 13.37623762 6.68811881 18.25 9.8125 C25.04244884 14.07299658 32.00407421 17.98235073 39.00683594 21.88427734 C42.20349865 23.673688 45.38358823 25.49179175 48.5625 27.3125 C50.17318359 28.23482422 50.17318359 28.23482422 51.81640625 29.17578125 C52.86699219 29.77777344 53.91757812 30.37976563 55 31 C57.33301125 32.33389787 59.66648508 33.66698328 62 35 C62 35.66 62 36.32 62 37 C60.35 37.66 58.7 38.32 57 39 C57.33 38.01 57.66 37.02 58 36 C57.23429687 35.79890625 56.46859375 35.5978125 55.6796875 35.390625 C50.47436764 33.42343405 45.89635046 30.5929729 41.125 27.75 C38.98831856 26.49082211 36.85159862 25.23170954 34.71484375 23.97265625 C33.6151123 23.32184082 32.51538086 22.67102539 31.38232422 22.00048828 C25.82624758 18.71432602 20.25802827 15.44908467 14.6875 12.1875 C13.66221191 11.58325195 12.63692383 10.97900391 11.58056641 10.35644531 C10.62972168 9.79924805 9.67887695 9.24205078 8.69921875 8.66796875 C7.86221436 8.17578857 7.02520996 7.6836084 6.1628418 7.17651367 C3.92631556 5.87791935 3.92631556 5.87791935 1 5 C1.00222061 5.59912704 1.00444122 6.19825409 1.00672913 6.8155365 C1.02878165 13.02797858 1.04390646 19.24040962 1.05493164 25.45288086 C1.05997333 27.77417451 1.06680651 30.09546497 1.07543945 32.41674805 C1.08751225 35.74528795 1.09322979 39.07378602 1.09765625 42.40234375 C1.10281754 43.44712387 1.10797882 44.49190399 1.11329651 45.56834412 C1.11340981 47.00972496 1.11340981 47.00972496 1.11352539 48.48022461 C1.115746 49.33071884 1.11796661 50.18121307 1.12025452 51.05747986 C1 53 1 53 0 54 C-2.21855264 54.08783542 -4.43988496 54.10694609 -6.66015625 54.09765625 C-7.65685585 54.09553383 -7.65685585 54.09553383 -8.6736908 54.09336853 C-10.80333899 54.08775518 -12.93288339 54.07520054 -15.0625 54.0625 C-16.50325369 54.05748671 -17.94400903 54.05292351 -19.38476562 54.04882812 C-22.92321102 54.03778145 -26.46159539 54.02050792 -30 54 C-30 53.01 -30 52.02 -30 51 C-20.1 51 -10.2 51 0 51 C0 34.17 0 17.34 0 0 Z " fill="#8B4957" transform="translate(271,235)"/>
<path d="M0 0 C0 0.66 0 1.32 0 2 C-0.99 2 -1.98 2 -3 2 C-3.06574219 2.59425781 -3.13148438 3.18851563 -3.19921875 3.80078125 C-4.32399351 6.8897968 -5.99136794 7.58073518 -8.8125 9.1875 C-9.68519531 9.69667969 -10.55789062 10.20585937 -11.45703125 10.73046875 C-13.69040726 11.84544141 -15.59512105 12.43196016 -18 13 C-18.495 13.495 -18.99 13.99 -19.5 14.5 C-21.30148695 16.30148695 -22.57135613 16.39283903 -25 17 C-25.39316406 17.42023438 -25.78632813 17.84046875 -26.19140625 18.2734375 C-28.78696226 20.7512685 -31.83197617 22.37513827 -34.9375 24.125 C-35.55818359 24.48464844 -36.17886719 24.84429687 -36.81835938 25.21484375 C-39.85646464 26.94258413 -42.59460934 28.24413058 -46 29 C-46.598125 29.598125 -47.19625 30.19625 -47.8125 30.8125 C-50.60968863 33.60968863 -53.52158149 35.12700542 -57 37 C-57 37.66 -57 38.32 -57 39 C-58.65 38.34 -60.3 37.68 -62 37 C-62 36.34 -62 35.68 -62 35 C-59.40559103 33.34020342 -56.81113053 31.81249806 -54.125 30.3125 C-52.3826883 29.32183298 -50.64050809 28.33093469 -48.8984375 27.33984375 C-47.95194336 26.80472168 -47.00544922 26.26959961 -46.03027344 25.71826172 C-40.58735904 22.6319556 -35.16990562 19.50147605 -29.75 16.375 C-28.64156738 15.73723633 -27.53313477 15.09947266 -26.39111328 14.44238281 C-19.60176932 10.5289892 -12.84524549 6.56957885 -6.18652344 2.43701172 C-2.21129 0 -2.21129 0 0 0 Z " fill="#7E4452" transform="translate(241,235)"/>
<path d="M0 0 C1.30598768 4.34048848 0.77036658 7.86914465 -1 12 C-4.18763115 16.59707217 -7.84278701 20.64241692 -13 23 C-13.66 23 -14.32 23 -15 23 C-15 23.66 -15 24.32 -15 25 C-15.825 25.391875 -16.65 25.78375 -17.5 26.1875 C-20.04768713 27.50683798 -22.40170769 28.84349467 -24.8125 30.375 C-27.73927449 32.22525974 -30.68521094 34.02443187 -33.6875 35.75 C-34.39261719 36.15734375 -35.09773438 36.5646875 -35.82421875 36.984375 C-38.20456413 38.09548774 -40.41433419 38.58339535 -43 39 C-43 39.66 -43 40.32 -43 41 C-47.15487723 44.24599784 -50.90551202 44.56826373 -56 45 C-53.69668953 42.4697074 -51.32885152 40.90658011 -48.34375 39.25 C-47.41240234 38.72937988 -46.48105469 38.20875977 -45.52148438 37.67236328 C-44.52439453 37.1204834 -43.52730469 36.56860352 -42.5 36 C-40.41641245 34.83118222 -38.33308318 33.66190392 -36.25 32.4921875 C-33.22633032 30.80068263 -30.20135867 29.11173459 -27.171875 27.43066406 C-24.6086599 26.00571883 -22.05378765 24.56675341 -19.5 23.125 C-18.74267578 22.70992188 -17.98535156 22.29484375 -17.20507812 21.8671875 C-10.07498721 17.8184746 -4.05842637 13.14930143 -1.5625 5.0625 C-1.25441406 4.10472656 -0.94632812 3.14695312 -0.62890625 2.16015625 C-0.42136719 1.44730469 -0.21382813 0.73445313 0 0 Z " fill="#7A495E" transform="translate(389,321)"/>
<path d="M0 0 C5.52268888 8.28403333 4.02161004 21.94561884 2.64990234 31.41748047 C0.61407859 41.37162196 -3.95637013 48.68546129 -11 56 C-11.53109375 56.64195312 -12.0621875 57.28390625 -12.609375 57.9453125 C-16.84081319 62.80928527 -22.13755722 65.44517516 -27.84619141 68.2487793 C-31.18960111 69.9077522 -32.88466052 70.82699078 -35 74 C-35 71.36 -35 68.72 -35 66 C-34.17757813 65.74347656 -33.35515625 65.48695313 -32.5078125 65.22265625 C-23.93587345 62.28285729 -18.22675948 58.54318283 -12 52 C-11.40316406 51.38769531 -10.80632812 50.77539062 -10.19140625 50.14453125 C-6.53603758 46.16099981 -4.10947802 41.95961721 -2 37 C-1.69964844 36.36964844 -1.39929688 35.73929688 -1.08984375 35.08984375 C3.24633186 24.62251752 1.32966282 10.99346221 0 0 Z " fill="#85455B" transform="translate(306,127)"/>
<path d="M0 0 C1.29860201 2.59720401 0.76020548 3.52623824 0.0625 6.3125 C-2.86462256 20.2664541 -0.95195194 34.20701128 6.34765625 46.50390625 C13.40685279 57.16779889 22.67716017 63.56576595 35 67 C35 69.64 35 72.28 35 75 C34.92007813 74.3709375 34.84015625 73.741875 34.7578125 73.09375 C34.21687658 70.84672227 34.21687658 70.84672227 32.1796875 70.09375 C31.41914063 69.8978125 30.65859375 69.701875 29.875 69.5 C25.43011921 68.21276252 21.93156182 66.4258573 18 64 C18 63.34 18 62.68 18 62 C17.26910156 61.78472656 16.53820312 61.56945312 15.78515625 61.34765625 C8.82121242 57.97800601 3.50202513 48.29365677 0.7734375 41.234375 C0.51820313 40.49703125 0.26296875 39.7596875 0 39 C-0.29648438 38.24203125 -0.59296875 37.4840625 -0.8984375 36.703125 C-3.01496558 30.4506292 -3.31042146 24.35466478 -3.375 17.8125 C-3.38885742 16.96905029 -3.40271484 16.12560059 -3.41699219 15.2565918 C-3.37424116 9.52626649 -2.29083892 5.25438451 0 0 Z " fill="#7F4357" transform="translate(206,126)"/>
<path d="M0 0 C2.29954636 1.97622941 4.30115488 3.80713835 6.09765625 6.25 C6.09765625 7.24 6.09765625 8.23 6.09765625 9.25 C6.75765625 9.25 7.41765625 9.25 8.09765625 9.25 C9.59922499 12.25313748 9.19046829 15.04067522 9.16015625 18.375 C9.15113281 19.65632813 9.14210938 20.93765625 9.1328125 22.2578125 C9.12121094 23.24523437 9.10960937 24.23265625 9.09765625 25.25 C8.76765625 25.25 8.43765625 25.25 8.09765625 25.25 C8.08347656 24.46496094 8.06929688 23.67992187 8.0546875 22.87109375 C7.7441 16.0297746 7.24705096 11.05073778 2.09765625 6.25 C-4.46169457 1.26489338 -11.53593263 0.65794425 -19.58984375 1.75 C-25.43590863 4.39727466 -31.56239105 9.10762417 -33.90234375 15.25 C-34.35550838 20.00822862 -34.09955767 24.61079606 -32.90234375 29.25 C-34.90234375 28.25 -34.90234375 28.25 -35.90234375 25.25 C-36.62092342 18.32083889 -36.63541572 12.71778585 -32.3828125 7 C-31.89425781 6.4225 -31.40570313 5.845 -30.90234375 5.25 C-30.44472656 4.6725 -29.98710937 4.095 -29.515625 3.5 C-22.61394939 -4.36601932 -8.78853276 -5.29914223 0 0 Z " fill="#703A53" transform="translate(268.90234375,124.75)"/>
<path d="M0 0 C2 3 2 3 3.6875 6.25 C9.15679202 15.62032827 17.51793307 19.78288679 26.76367188 24.7734375 C30.59617909 26.87545892 34.35997836 29.09251518 38.125 31.3125 C38.82286621 31.72089111 39.52073242 32.12928223 40.23974609 32.55004883 C51.62759189 39.25518378 51.62759189 39.25518378 53 42 C54.64142963 43.0409066 56.30712215 44.04504326 58 45 C54.27792613 45 52.53604411 43.82035432 49.3125 42 C48.31863281 41.443125 47.32476562 40.88625 46.30078125 40.3125 C45.54152344 39.879375 44.78226563 39.44625 44 39 C44 38.34 44 37.68 44 37 C42.35 36.67 40.7 36.34 39 36 C39 35.34 39 34.68 39 34 C38.40832031 33.81824219 37.81664062 33.63648438 37.20703125 33.44921875 C28.69505836 30.74149491 28.69505836 30.74149491 25 28 C25 27.34 25 26.68 25 26 C24.2575 25.87625 23.515 25.7525 22.75 25.625 C20.19858515 25.04513299 18.2732427 24.26291261 16 23 C16 22.34 16 21.68 16 21 C15.0925 20.7525 14.185 20.505 13.25 20.25 C9.87503877 18.95193799 8.25897879 17.78028159 6 15 C6 14.34 6 13.68 6 13 C5.01 12.67 4.02 12.34 3 12 C2.05078125 10.29296875 2.05078125 10.29296875 1.3125 8.1875 C1.06113281 7.50042969 0.80976562 6.81335938 0.55078125 6.10546875 C0 4 0 4 0 0 Z " fill="#854E63" transform="translate(122,323)"/>
<path d="M0 0 C0.99 0 1.98 0 3 0 C3 0.66 3 1.32 3 2 C2.34 2 1.68 2 1 2 C1.00222061 2.59912704 1.00444122 3.19825409 1.00672913 3.8155365 C1.02878165 10.02797858 1.04390646 16.24040962 1.05493164 22.45288086 C1.05997333 24.77417451 1.06680651 27.09546497 1.07543945 29.41674805 C1.08751225 32.74528795 1.09322979 36.07378602 1.09765625 39.40234375 C1.10281754 40.44712387 1.10797882 41.49190399 1.11329651 42.56834412 C1.11340981 44.00972496 1.11340981 44.00972496 1.11352539 45.48022461 C1.115746 46.33071884 1.11796661 47.18121307 1.12025452 48.05747986 C1 50 1 50 0 51 C-2.21855264 51.08783542 -4.43988496 51.10694609 -6.66015625 51.09765625 C-7.65685585 51.09553383 -7.65685585 51.09553383 -8.6736908 51.09336853 C-10.80333899 51.08775518 -12.93288339 51.07520054 -15.0625 51.0625 C-16.50325369 51.05748671 -17.94400903 51.05292351 -19.38476562 51.04882812 C-22.92321102 51.03778145 -26.46159539 51.02050792 -30 51 C-30 50.01 -30 49.02 -30 48 C-20.1 48 -10.2 48 0 48 C0 32.16 0 16.32 0 0 Z " fill="#985261" transform="translate(271,238)"/>
<path d="M0 0 C0 8.25 0 16.5 0 25 C-0.33 25 -0.66 25 -1 25 C-1.495 15.1 -1.495 15.1 -2 5 C-3.67449219 6.02222656 -5.34898437 7.04445313 -7.07421875 8.09765625 C-9.27818641 9.42003684 -11.48263889 10.74160963 -13.6875 12.0625 C-14.79029297 12.73861328 -15.89308594 13.41472656 -17.02929688 14.11132812 C-18.09599609 14.74619141 -19.16269531 15.38105469 -20.26171875 16.03515625 C-21.24100342 16.6269165 -22.22028809 17.21867676 -23.22924805 17.82836914 C-26.3732115 19.15781496 -27.79832248 19.02463901 -31 18 C-28.86967119 15.69494522 -26.80745986 14.18462322 -24.05078125 12.6953125 C-23.28443359 12.27636719 -22.51808594 11.85742188 -21.72851562 11.42578125 C-20.53258789 10.78189453 -20.53258789 10.78189453 -19.3125 10.125 C-13.95559442 7.22241819 -8.71081295 4.26319289 -3.61791992 0.91357422 C-2 0 -2 0 0 0 Z " fill="#854A5A" transform="translate(361,290)"/>
<path d="M0 0 C0 0.66 0 1.32 0 2 C-0.99 2.33 -1.98 2.66 -3 3 C-3.86625 3.9590625 -3.86625 3.9590625 -4.75 4.9375 C-8.59813303 8.46495528 -13.04446273 9.10122673 -18.125 9.1875 C-21.23215871 9.03715361 -23.99376828 8.75155793 -27 8 C-27 7.34 -27 6.68 -27 6 C-27.66 6 -28.32 6 -29 6 C-29 5.01 -29 4.02 -29 3 C-28.28070313 3.15855469 -27.56140625 3.31710937 -26.8203125 3.48046875 C-18.60337075 4.99411591 -11.90779563 4.0537233 -4.21484375 0.875 C-2 0 -2 0 0 0 Z " fill="#684869" transform="translate(274,400)"/>
<path d="M0 0 C0 3 0 3 -1.2421875 4.60546875 C-1.78101563 5.12753906 -2.31984375 5.64960938 -2.875 6.1875 C-3.40867187 6.71730469 -3.94234375 7.24710938 -4.4921875 7.79296875 C-6 9 -6 9 -8 9 C-8.04253906 9.59683594 -8.08507812 10.19367188 -8.12890625 10.80859375 C-9.45568308 14.14635969 -11.72958005 14.63209574 -14.9375 16.0625 C-19.71553636 18.11097483 -19.71553636 18.11097483 -23 22 C-23 19.36 -23 16.72 -23 14 C-22.17757813 13.74347656 -21.35515625 13.48695313 -20.5078125 13.22265625 C-11.97047567 10.29472433 -6.25409168 6.47997309 0 0 Z " fill="#743E4E" transform="translate(294,179)"/>
<path d="M0 0 C3.69012824 1.4760513 6.44002336 2.74677252 9.6875 4.875 C10.45449219 5.36742187 11.22148437 5.85984375 12.01171875 6.3671875 C14.12413402 8.1019411 14.98415894 9.49027504 16 12 C11.01475706 10.23104283 6.5878012 7.6020365 2 5 C1.67 11.6 1.34 18.2 1 25 C0.67 25 0.34 25 0 25 C0 16.75 0 8.5 0 0 Z " fill="#734253" transform="translate(151,290)"/>
<path d="M0 0 C0.86625 0.12375 1.7325 0.2475 2.625 0.375 C1.635 0.705 0.645 1.035 -0.375 1.375 C-0.705 2.365 -1.035 3.355 -1.375 4.375 C-3.1171875 6.0234375 -3.1171875 6.0234375 -5.25 7.75 C-10.52262219 12.1533213 -10.52262219 12.1533213 -12.578125 18.5078125 C-12.65865863 22.57476078 -12.39568944 26.41982844 -11.375 30.375 C-13.375 29.375 -13.375 29.375 -14.375 26.375 C-15.0930242 19.45119518 -15.10858054 13.8490183 -10.86328125 8.1328125 C-10.37214844 7.55273438 -9.88101563 6.97265625 -9.375 6.375 C-8.89417969 5.77429688 -8.41335937 5.17359375 -7.91796875 4.5546875 C-5.35273833 1.64426776 -3.902727 0.43363633 0 0 Z " fill="#60344D" transform="translate(247.375,123.625)"/>
<path d="M0 0 C-2.53553855 1.49060758 -5.07756126 2.96748062 -7.625 4.4375 C-8.33785156 4.85837891 -9.05070312 5.27925781 -9.78515625 5.71289062 C-13.86980462 8.05500552 -17.21585645 9.58497177 -22 10 C-16.53672196 3.83178286 -8.51193432 -2.35193814 0 0 Z " fill="#854D62" transform="translate(284,338)"/>
<path d="M0 0 C-4.69334478 4.20782635 -10.24646076 7.45213641 -16 10 C-16.66 9.67 -17.32 9.34 -18 9 C-16.6621001 4.98630031 -14.85163712 4.37584435 -11.25 2.25 C-10.20328125 1.61578125 -9.1565625 0.9815625 -8.078125 0.328125 C-4.73692556 -1.11350928 -3.39170716 -1.13056905 0 0 Z " fill="#8B4A58" transform="translate(215,253)"/>
<path d="M0 0 C-2.45267635 1.53068488 -4.91133894 3.04968623 -7.375 4.5625 C-8.07367188 5.00013672 -8.77234375 5.43777344 -9.4921875 5.88867188 C-11.29185903 6.98750978 -13.14322343 8.00067867 -15 9 C-15.66 8.67 -16.32 8.34 -17 8 C-15.71244148 3.99426239 -13.2774681 2.68149979 -9.73828125 0.8203125 C-5.98797029 -0.94949716 -3.96423478 -1.07518583 0 0 Z " fill="#7E4E67" transform="translate(339,366)"/>
<path d="M0 0 C0 8.25 0 16.5 0 25 C-0.33 25 -0.66 25 -1 25 C-1 18.07 -1 11.14 -1 4 C-3.97 4.66 -6.94 5.32 -10 6 C-4 0 -4 0 0 0 Z " fill="#56354A" transform="translate(361,290)"/>
<path d="M0 0 C-0.99 0 -1.98 0 -3 0 C-3 0.66 -3 1.32 -3 2 C-7.66666667 4.33333333 -12.33333333 6.66666667 -17 9 C-16.67 8.01 -16.34 7.02 -16 6 C-15.01 6 -14.02 6 -13 6 C-13 5.01 -13 4.02 -13 3 C-8.63192098 -0.15472374 -5.21416565 -1.67598181 0 0 Z " fill="#764F6F" transform="translate(287,396)"/>
<path d="M0 0 C-0.33 0.99 -0.66 1.98 -1 3 C-3 3.66666667 -5 4.33333333 -7 5 C-7.33 5.99 -7.66 6.98 -8 8 C-10.64 8.33 -13.28 8.66 -16 9 C-13.50506504 6.18368359 -10.73437182 4.59044019 -7.4375 2.8125 C-6.46683594 2.28269531 -5.49617188 1.75289063 -4.49609375 1.20703125 C-2 0 -2 0 0 0 Z " fill="#6B455F" transform="translate(323,372)"/>
<path d="M0 0 C5.28 0 10.56 0 16 0 C13 3 13 3 10.37109375 3.3984375 C8.91896484 3.38683594 8.91896484 3.38683594 7.4375 3.375 C6.46683594 3.38273437 5.49617187 3.39046875 4.49609375 3.3984375 C3.67238281 3.26695312 2.84867188 3.13546875 2 3 C1.34 2.01 0.68 1.02 0 0 Z " fill="#704458" transform="translate(249,345)"/>
<path d="M0 0 C-1.95245185 1.19714555 -3.91214997 2.38248074 -5.875 3.5625 C-6.96554687 4.22378906 -8.05609375 4.88507813 -9.1796875 5.56640625 C-10.57574219 6.27603516 -10.57574219 6.27603516 -12 7 C-12.66 6.67 -13.32 6.34 -14 6 C-13.00629727 3.40563017 -12.44293474 2.2328139 -9.94140625 0.91796875 C-9.15636719 0.67691406 -8.37132812 0.43585938 -7.5625 0.1875 C-6.78003906 -0.06644531 -5.99757813 -0.32039063 -5.19140625 -0.58203125 C-3 -1 -3 -1 0 0 Z " fill="#8B4F61" transform="translate(312,322)"/>
<path d="M0 0 C-0.99 0 -1.98 0 -3 0 C-3 0.66 -3 1.32 -3 2 C-8.625 5 -8.625 5 -12 5 C-12 5.66 -12 6.32 -12 7 C-12.66 6.67 -13.32 6.34 -14 6 C-12.73721868 2.21165605 -11.47887048 1.77988722 -8 0 C-4.95338928 -1.10785845 -3.07714019 -0.98908078 0 0 Z " fill="#784D69" transform="translate(313,381)"/>
<path d="M0 0 C1.75215106 0.93347358 3.50163563 1.8719532 5.25 2.8125 C6.71179688 3.59560547 6.71179688 3.59560547 8.203125 4.39453125 C10.63355412 5.78965188 12.80787699 7.26195961 15 9 C10.22879494 8.41814572 6.24555935 7.28607042 2 5 C0.796875 2.390625 0.796875 2.390625 0 0 Z " fill="#7A495E" transform="translate(150,349)"/>
<path d="M0 0 C0.66 0.33 1.32 0.66 2 1 C-2.29 5.29 -6.58 9.58 -11 14 C-11 10.30159372 -10.17133056 9.68584567 -7.75 7 C-7.14671875 6.319375 -6.5434375 5.63875 -5.921875 4.9375 C-4.06233388 3.06284066 -2.15205789 1.52358081 0 0 Z " fill="#2F233F" transform="translate(225,101)"/>
<path d="M0 0 C4.05606165 0.46800711 7.46588679 0.87953208 11 3 C11 3.99 11 4.98 11 6 C11.66 6.33 12.32 6.66 13 7 C7.92990529 6.52467862 4.02506742 3.95637706 0 1 C0 0.67 0 0.34 0 0 Z " fill="#775072" transform="translate(234,400)"/>
<path d="M0 0 C-1.37285156 0.70576172 -1.37285156 0.70576172 -2.7734375 1.42578125 C-3.97416738 2.05428829 -5.1746768 2.68321663 -6.375 3.3125 C-6.97828125 3.62123047 -7.5815625 3.92996094 -8.203125 4.24804688 C-11.38258325 5.92609428 -12.96537552 6.94806328 -15 10 C-15 8.02 -15 6.04 -15 4 C-14.13375 3.731875 -13.2675 3.46375 -12.375 3.1875 C-8.95997487 2.07949211 -8.95997487 2.07949211 -5.8125 0.3125 C-3 -1 -3 -1 0 0 Z " fill="#924B5B" transform="translate(286,191)"/>
<path d="M0 0 C3.96 1.98 7.92 3.96 12 6 C12 6.33 12 6.66 12 7 C6.375 7.25 6.375 7.25 3 5 C3 4.34 3 3.68 3 3 C2.01 2.67 1.02 2.34 0 2 C0 1.34 0 0.68 0 0 Z " fill="#7F495A" transform="translate(203,320)"/>
<path d="M0 0 C0 2 0 2 -1.5 4.0625 C-4.99649661 6.77228487 -7.62307465 6.70820498 -12 7 C-9.20232475 3.70861735 -4.40323273 0 0 0 Z " fill="#6A435A" transform="translate(345,359)"/>
<path d="M0 0 C-0.33 1.32 -0.66 2.64 -1 4 C-6.445 5.485 -6.445 5.485 -12 7 C-8.85595666 3.85595666 -4.70527539 0 0 0 Z " fill="#734355" transform="translate(316,316)"/>
<path d="M0 0 C-5.5 4 -5.5 4 -10 4 C-10 4.66 -10 5.32 -10 6 C-11.32 6.33 -12.64 6.66 -14 7 C-13.67 6.34 -13.34 5.68 -13 5 C-12.34 5 -11.68 5 -11 5 C-11 4.01 -11 3.02 -11 2 C-9.73392393 1.46770674 -8.46189588 0.94955456 -7.1875 0.4375 C-6.47980469 0.14746094 -5.77210938 -0.14257812 -5.04296875 -0.44140625 C-3 -1 -3 -1 0 0 Z " fill="#814E66" transform="translate(356,356)"/>
<path d="M0 0 C0 2 0 2 -1.20703125 3.55078125 C-3.36220519 5.2927628 -4.97895327 5.67719409 -7.6875 6.1875 C-8.49574219 6.34605469 -9.30398438 6.50460937 -10.13671875 6.66796875 C-11.05904297 6.83232422 -11.05904297 6.83232422 -12 7 C-8.96533294 3.76116573 -4.61110165 0 0 0 Z " fill="#654460" transform="translate(293,389)"/>
<path d="M0 0 C1.98270912 0.95098266 3.96108379 1.91100703 5.9375 2.875 C7.03964844 3.40867187 8.14179688 3.94234375 9.27734375 4.4921875 C12 6 12 6 13 8 C9.625 7.6875 9.625 7.6875 6 7 C5.34 6.01 4.68 5.02 4 4 C1.94996045 2.80767387 1.94996045 2.80767387 0 2 C0 1.34 0 0.68 0 0 Z " fill="#74475F" transform="translate(174,363)"/>
<path d="M0 0 C3.3 1.65 6.6 3.3 10 5 C10 5.66 10 6.32 10 7 C8.35 7.66 6.7 8.32 5 9 C5.33 8.01 5.66 7.02 6 6 C5.34 6 4.68 6 4 6 C4 5.01 4 4.02 4 3 C2.68 2.67 1.36 2.34 0 2 C0 1.34 0 0.68 0 0 Z " fill="#7D4453" transform="translate(323,265)"/>
<path d="M0 0 C-1 3 -1 3 -3.1875 4.625 C-6.17152633 6.08385732 -8.71554694 6.61808685 -12 7 C-9.20232475 3.70861735 -4.40323273 0 0 0 Z " fill="#713E4E" transform="translate(198,260)"/>
<path d="M0 0 C6.625 0.75 6.625 0.75 10 3 C9.67 3.99 9.34 4.98 9 6 C7.68 5.34 6.36 4.68 5 4 C5 3.34 5 2.68 5 2 C3.35 1.67 1.7 1.34 0 1 C0 0.67 0 0.34 0 0 Z " fill="#7D516E" transform="translate(208,385)"/>
<path d="M0 0 C0 0.66 0 1.32 0 2 C-3.41831915 4.5393228 -5.75776898 5.3636198 -10 5 C-10 4.34 -10 3.68 -10 3 C-8.70990357 2.49596232 -7.41786211 1.99690074 -6.125 1.5 C-5.04605469 1.08234375 -5.04605469 1.08234375 -3.9453125 0.65625 C-2 0 -2 0 0 0 Z " fill="#643748" transform="translate(281,190)"/>
<path d="M0 0 C3.37503669 1.1858237 5.64722731 2.27573689 8 5 C5.69 4.67 3.38 4.34 1 4 C0.67 2.68 0.34 1.36 0 0 Z " fill="#804858" transform="translate(187,311)"/>
<path d="M0 0 C0 0.99 0 1.98 0 3 C-2.97 3.66 -5.94 4.32 -9 5 C-4 0 -4 0 0 0 Z " fill="#72404F" transform="translate(360,291)"/>
<path d="M0 0 C2.97 0.495 2.97 0.495 6 1 C6 3.64 6 6.28 6 9 C5.67 9 5.34 9 5 9 C4.9175 8.21625 4.835 7.4325 4.75 6.625 C4.27193661 3.85250896 4.27193661 3.85250896 1.9375 2.6875 C1.298125 2.460625 0.65875 2.23375 0 2 C0 1.34 0 0.68 0 0 Z " fill="#743E4E" transform="translate(235,192)"/>
<path d="M0 0 C3.26954202 0.56371414 4.82575883 1.49962266 7 4 C4.69 4 2.38 4 0 4 C0 2.68 0 1.36 0 0 Z " fill="#774251" transform="translate(152,291)"/>
<path d="M0 0 C-5.2734375 3.22265625 -5.2734375 3.22265625 -7 4 C-7.66 3.67 -8.32 3.34 -9 3 C-6.38220849 -0.01046024 -3.86655673 -1.93327837 0 0 Z " fill="#98515F" transform="translate(194,266)"/>
<path d="M0 0 C1.8125 0.1875 1.8125 0.1875 4 1 C5.75 3.5625 5.75 3.5625 7 6 C2.32307692 4.52307692 2.32307692 4.52307692 0.6875 1.875 C0.460625 1.25625 0.23375 0.6375 0 0 Z " fill="#924B5C" transform="translate(217,182)"/>
</svg>
